<?xml version="1.0" encoding="UTF-8" standalone="no"?>
<!-- Created with Inkscape (http://www.inkscape.org/) -->

<svg
   version="1.1"
   id="svg1"
   width="250.90668"
   height="214.86667"
   viewBox="0 0 250.90668 214.86667"
   xmlns="http://www.w3.org/2000/svg"
   xmlns:svg="http://www.w3.org/2000/svg">
  <defs
     id="defs1" />
  <g
     id="g1">
    <path
       id="path1"
       d="M -33.61757,0 H 141.33554"
       style="fill:none;stroke:#000000;stroke-width:0.3985;stroke-linecap:butt;stroke-linejoin:miter;stroke-miterlimit:10;stroke-dasharray:none;stroke-opacity:1"
       transform="matrix(1.3333333,0,0,-1.3333333,45.62,169.24667)" />
    <path
       id="path2"
       d="M -2.07224,2.39104 C -1.69365,0.95639 -0.84999,0.27895 0,0 -0.84999,-0.27895 -1.69365,-0.95639 -2.07224,-2.39104"
       style="fill:none;stroke:#000000;stroke-width:0.3985;stroke-linecap:round;stroke-linejoin:round;stroke-miterlimit:10;stroke-dasharray:none;stroke-opacity:1"
       transform="matrix(-1.3333333,0,0,1.3333333,0.53090667,169.24667)" />
    <path
       id="path3"
       d="M -2.07224,2.39104 C -1.69365,0.95639 -0.84999,0.27895 0,0 -0.84999,-0.27895 -1.69365,-0.95639 -2.07224,-2.39104"
       style="fill:none;stroke:#000000;stroke-width:0.3985;stroke-linecap:round;stroke-linejoin:round;stroke-miterlimit:10;stroke-dasharray:none;stroke-opacity:1"
       transform="matrix(1.3333333,0,0,-1.3333333,234.33305,169.24667)" />
    <path
       id="path4"
       d="m 1.9929141,-3.0807891 0.3632812,0.984375 -0.9375,1.37109379 c -0.1054687,0.15234375 -0.2109375,0.1875 -0.28125,0.1875 -0.082031,0 -0.18749999,-0.0234375 -0.26953124,-0.0585938 -0.09375,-0.0351563 -0.1875,-0.0585938 -0.29296875,-0.0585938 -0.2109375,0 -0.375,0.15234375 -0.375,0.375 0,0.2578125 0.3515625,0.38671875 0.57421875,0.38671875 0.33984374,0 0.58593754,-0.15234375 1.01953124,-0.78515625 l 0.703125,-0.99609379 0.375,1.21875004 c 0.1289063,0.3984375 0.2226563,0.5625 0.5625,0.5625 0.3515625,0 0.7851563,-0.19921875 1.1015625,-0.71484375 -0.046875,-0.09375 -0.1289062,-0.1640625 -0.2460937,-0.1875 -0.2578125,0.328125 -0.3867188,0.41015625 -0.4921875,0.41015625 -0.09375,0 -0.1640625,-0.12890625 -0.2460938,-0.375 l -0.5273437,-1.59375004 0.75,-1.125 c 0.1640625,-0.2226562 0.3984375,-0.2695312 0.46875,-0.2695312 0.082031,0 0.2109375,0.035156 0.3046875,0.1054687 0.070312,0.058594 0.2226562,0.09375 0.328125,0.09375 0.140625,0 0.3164062,-0.1992187 0.3164062,-0.421875 0,-0.2460937 -0.2695312,-0.3984375 -0.5039062,-0.3984375 -0.4921875,0 -0.8203125,0.1640625 -1.3125,0.8789063 l -0.4921875,0.7148437 -0.28125,-0.8789062 c -0.1757813,-0.515625 -0.28125,-0.7148438 -0.5273438,-0.7148438 -0.234375,0 -0.9726562,0.4101563 -1.31249999,0.6679688 0,0.1054687 0.046875,0.2226562 0.12890625,0.3046875 0.11718754,-0.058594 0.44531254,-0.2226563 0.65625004,-0.2226563 0.1289062,0 0.2226562,0.035156 0.28125,0.1289063 0.035156,0.070312 0.1054687,0.234375 0.1640625,0.4101563 z m 0,0"
       style="fill:#000000;fill-opacity:1;fill-rule:nonzero;stroke:none"
       aria-label="ð‘¥"
       transform="matrix(1.3333333,0,0,1.3333333,239.292,172.096)" />
    <path
       id="path5"
       d="M 0,-33.61757 V 112.98872"
       style="fill:none;stroke:#000000;stroke-width:0.3985;stroke-linecap:butt;stroke-linejoin:miter;stroke-miterlimit:10;stroke-dasharray:none;stroke-opacity:1"
       transform="matrix(1.3333333,0,0,-1.3333333,45.62,169.24667)" />
    <path
       id="path6"
       d="M -2.07224,2.39104 C -1.69365,0.95639 -0.84999,0.27895 0,0 -0.84999,-0.27895 -1.69365,-0.95639 -2.07224,-2.39104"
       style="fill:none;stroke:#000000;stroke-width:0.3985;stroke-linecap:round;stroke-linejoin:round;stroke-miterlimit:10;stroke-dasharray:none;stroke-opacity:1"
       transform="matrix(0,1.3333333,1.3333333,0,45.62,214.33576)" />
    <path
       id="path7"
       d="M -2.07224,2.39104 C -1.69365,0.95639 -0.84999,0.27895 0,0 -0.84999,-0.27895 -1.69365,-0.95639 -2.07224,-2.39104"
       style="fill:none;stroke:#000000;stroke-width:0.3985;stroke-linecap:round;stroke-linejoin:round;stroke-miterlimit:10;stroke-dasharray:none;stroke-opacity:1"
       transform="matrix(0,-1.3333333,-1.3333333,0,45.62,18.329373)" />
    <path
       id="path8"
       d="M 3.2240234,-7.109375e-4 C 3.4232422,-0.31711719 4.6302734,-2.1803984 4.9115234,-2.8366484 c 0.1523438,-0.3515625 0.2695313,-0.7148438 0.2695313,-1.0664063 0,-0.28125 -0.140625,-0.46875 -0.515625,-0.46875 -0.2929688,0 -0.46875,0.1289063 -0.46875,0.3632813 0,0.058594 0.023437,0.1640625 0.058594,0.1992187 0.1523438,0.234375 0.2109375,0.4453125 0.2109375,0.5976563 0,0.4453125 -0.4101562,1.1835937 -0.7617187,1.7226562 0,0 -0.5039063,0.84375001 -0.7617188,1.20703126 l -0.058594,-0.0234375 C 2.8255859,-1.4655547 2.7552734,-2.4030547 2.4505859,-3.6335234 2.3099609,-4.1608672 2.1810547,-4.3718047 1.9349609,-4.3718047 c -0.234375,0 -0.97265621,0.4101563 -1.31249996,0.6679688 0.0117188,0.1054687 0.046875,0.2226562 0.12890625,0.3046875 0.1171875,-0.058594 0.44531251,-0.2226563 0.64453121,-0.2226563 0.1289063,0 0.234375,0.035156 0.28125,0.1289063 0.046875,0.070312 0.09375,0.234375 0.1523438,0.4101562 0.3046875,1.0195313 0.609375,3.44531251 0.4921875,3.70312501 C 1.9115234,1.2883516 1.5013672,1.7219453 1.3607422,1.7219453 c -0.1054688,0 -0.2929688,-0.1289062 -0.3515625,-0.1757812 -0.0703125,-0.058594 -0.26953126,-0.140625 -0.35156251,-0.140625 -0.2109375,0 -0.45703125,0.1992187 -0.45703125,0.5039062 0,0.328125 0.43359375,0.421875 0.609375,0.421875 0.52734376,0 1.31249996,-0.6445312 1.95703126,-1.62890624 z m 0,0"
       style="fill:#000000;fill-opacity:1;fill-rule:nonzero;stroke:none"
       aria-label="ð‘¦"
       transform="matrix(1.3333333,0,0,1.3333333,42.033333,10.262667)" />
    <path
       id="path9"
       d="M -28.3468,42.5202 H 141.73404"
       style="fill:none;stroke:#ff0000;stroke-width:1.19553;stroke-linecap:butt;stroke-linejoin:miter;stroke-miterlimit:10;stroke-dasharray:none;stroke-opacity:1"
       transform="matrix(1.3333333,0,0,-1.3333333,45.62,169.24667)" />
    <path
       id="path10"
       d="m 3.5031641,-4.3133203 c -0.2695313,-0.035156 -0.3984375,-0.058594 -0.796875,-0.058594 -1.0664063,0 -2.50781254,1.5585938 -2.50781254,3.1289063 0,0.55078124 0.12890625,1.34765624 0.96093754,1.34765624 0.5390625,0 1.0898437,-0.55078125 1.6875,-1.44140624 l 0.023437,0.023437 -0.1289063,0.41015624 c -0.070312,0.234375 -0.1054687,0.43359375 -0.1054687,0.55078125 0,0.1875 0.070312,0.45703125 0.4101562,0.45703125 0.6210938,0 1.0195313,-0.41015625 1.2773438,-0.97265625 -0.046875,-0.09375 -0.1054688,-0.16406249 -0.234375,-0.16406249 -0.2695313,0.37499999 -0.4570313,0.52734374 -0.5507813,0.52734374 -0.035156,0 -0.1171875,-0.0117188 -0.1171875,-0.12890625 0,-0.09375 0.058594,-0.37499999 0.09375,-0.56249999 l 0.6914063,-3.09375 c -0.070312,0 -0.1289063,0 -0.1992188,0 -0.1875,0 -0.3515625,0.011719 -0.5039057,-0.023437 z m -0.4921875,2.1328125 c -0.4921875,0.890625 -1.2539063,1.73437499 -1.5820313,1.73437499 -0.328125,0 -0.43359374,-0.3984375 -0.43359374,-0.96093749 0,-1.0546875 0.83203124,-2.6601563 1.74609374,-2.6601563 0.2109375,0 0.421875,0.070312 0.609375,0.1875 0,0 -0.09375,1.0546875 -0.3398437,1.6992188 z m 4.8574218,0.3398437 c -0.1171875,0.1171875 -0.1171875,0.375 0,0.4921875 h 5.2851566 c 0.117187,-0.1171875 0.117187,-0.375 0,-0.4921875 z m 0,-1.9921875 c -0.1171875,0.1171875 -0.1171875,0.375 0,0.4921875 h 5.2851566 c 0.117187,-0.1171875 0.117187,-0.375 0,-0.4921875 z M 18.781484,0.10464844 c 0.761719,0 1.933594,-0.78515625 1.933594,-3.12890624 0,-0.984375 -0.246094,-1.828125 -0.679687,-2.4023438 -0.257813,-0.3515625 -0.679688,-0.65625 -1.21875,-0.65625 -0.984375,0 -1.921875,1.1835938 -1.921875,3.1523438 0,1.0664062 0.328125,2.06249999 0.878906,2.61328124 0.28125,0.28125 0.621094,0.421875 1.007812,0.421875 z m 0.03516,-5.83593754 c 0.175781,0 0.328125,0.058594 0.445312,0.1757813 0.316406,0.2578125 0.585938,1.0078125 0.585938,2.34375 0,0.9140625 -0.03516,1.546875 -0.175782,2.0507812 -0.210937,0.82031254 -0.703125,0.91406254 -0.878906,0.91406254 -0.925781,0 -1.03125,-1.71093754 -1.03125,-2.57812504 0,-2.4492187 0.609375,-2.90625 1.054688,-2.90625 z m 0,0"
       style="fill:#ff0000;fill-opacity:1;fill-rule:nonzero;stroke:none"
       aria-label="ð‘Ž=0"
       transform="matrix(1.3333333,0,0,1.3333333,192.15333,125.88)" />
    <path
       id="path11"
       d="M 56.69362,-28.3468 V 113.38724"
       style="fill:none;stroke:#ff0000;stroke-width:1.19553;stroke-linecap:butt;stroke-linejoin:miter;stroke-miterlimit:10;stroke-dasharray:none;stroke-opacity:1"
       transform="matrix(1.3333333,0,0,-1.3333333,45.62,169.24667)" />
    <path
       id="path12"
       d="m 2.0634453,-5.8111406 c 0.140625,-0.6445313 0.2460938,-1.0429688 0.2460938,-1.0429688 0,-0.070312 -0.023437,-0.09375 -0.1171875,-0.09375 -0.2695313,0.09375 -0.984375,0.2226563 -1.39453129,0.2578125 l -0.0351563,0.234375 c 0,0.035156 0.0117188,0.046875 0.0585938,0.046875 l 0.30468749,0.023437 c 0.1289063,0 0.2109375,0.058594 0.2109375,0.28125 0,0.1054688 -0.023437,0.28125 -0.070312,0.4921875 l -1.03124999,4.5585938 c -0.12890625,0.62109372 0.12890625,1.16015622 1.01953129,1.16015622 0.3046875,0 0.703125,-0.140625 1.0429687,-0.375 0.9140625,-0.6328125 1.828125,-1.89843752 1.828125,-2.91796872 0,-0.6796875 -0.140625,-1.1835938 -1.0429687,-1.1835938 -0.6914063,0 -1.1953125,0.6210938 -1.546875,1.03125 l -0.023437,-0.011719 z m 1.2421875,2.8125 c 0,1.4414062 -1.2421875,2.75390622 -2.0039062,2.75390622 -0.35156254,0 -0.41015629,-0.38671875 -0.2578125,-1.06640622 l 0.3398437,-1.4414063 c 0.46875,-0.5390625 0.9140625,-1.1484375 1.3945313,-1.1484375 0.3046875,0 0.5273437,0.2226563 0.5273437,0.9023438 z m 4.3623047,1.1601562 c -0.1171875,0.1171875 -0.1171875,0.375 0,0.4921875 h 5.2851565 c 0.117187,-0.1171875 0.117187,-0.375 0,-0.4921875 z m 0,-1.9921875 c -0.1171875,0.1171875 -0.1171875,0.375 0,0.4921875 h 5.2851565 c 0.117187,-0.1171875 0.117187,-0.375 0,-0.4921875 z M 18.581023,0.10682812 c 0.761719,0 1.933594,-0.78515625 1.933594,-3.12890622 0,-0.984375 -0.246094,-1.828125 -0.679687,-2.4023438 -0.257813,-0.3515625 -0.679688,-0.65625 -1.21875,-0.65625 -0.984375,0 -1.921875,1.1835938 -1.921875,3.1523438 0,1.0664062 0.328125,2.06249997 0.878906,2.61328122 0.28125,0.28125 0.621094,0.421875 1.007812,0.421875 z m 0.03516,-5.83593752 c 0.175781,0 0.328125,0.058594 0.445312,0.1757813 0.316406,0.2578125 0.585938,1.0078125 0.585938,2.34375 0,0.9140625 -0.03516,1.546875 -0.175782,2.0507812 -0.210937,0.82031252 -0.703125,0.91406252 -0.878906,0.91406252 -0.925781,0 -1.03125,-1.71093752 -1.03125,-2.57812502 0,-2.4492187 0.609375,-2.90625 1.054688,-2.90625 z m 0,0"
       style="fill:#ff0000;fill-opacity:1;fill-rule:nonzero;stroke:none"
       aria-label="ð‘=0"
       transform="matrix(1.3333333,0,0,1.3333333,88.057333,46.256)" />
    <path
       id="path13"
       d="M -28.3468,-21.2601 141.73404,106.30052"
       style="fill:none;stroke:#ff0000;stroke-width:1.19553;stroke-linecap:butt;stroke-linejoin:miter;stroke-miterlimit:10;stroke-dasharray:none;stroke-opacity:1"
       transform="matrix(1.3333333,0,0,-1.3333333,45.62,169.24667)" />
    <path
       id="path14"
       d="M 1.4470627,0.1020298 C 2.1666155,0.09969317 2.8275781,-0.43000361 3.294005,-1.0909563 3.2635363,-1.1870532 3.1697842,-1.2573688 3.0854067,-1.2620572 2.6963281,-0.82142291 2.3072507,-0.4979796 1.7634844,-0.49564122 1.6041046,-0.49798663 1.407224,-0.52845826 1.2619091,-0.72534062 1.1189379,-0.90581622 1.025187,-1.0933228 1.0228492,-1.6956846 c 0.0047,-1.4906697 0.6984822,-2.3766268 1.469599,-2.3695877 0.1335978,-0.00234 0.4007927,0.051568 0.4054771,0.3773592 0.00234,0.075002 -0.014064,0.1359414 -0.056254,0.1921927 -0.011719,0.035157 -0.046878,0.1406287 -0.046878,0.1992242 0.00703,0.1664113 0.098437,0.3375111 0.2742236,0.3375129 0.2671956,-0.00469 0.522674,-0.2085948 0.5273643,-0.4687588 -0.00468,-0.3843866 -0.051555,-0.9469039 -1.1226805,-0.9445708 -0.4007933,0.00703 -1.0430026,0.2578098 -1.448488,0.7007878 -0.49455128,0.522667 -0.82738152,1.2984682 -0.8180151,2.1844323 -0.002347,0.3351663 0.0609315,0.77814898 0.29999796,1.10394239 C 0.69938592,-0.09251476 1.0368941,0.1020257 1.4470627,0.1020298 Z m 5.6884713,-1.944728 c -0.1171922,0.1171898 -0.1218824,0.3773538 -0.00469,0.494546 l 5.290003,-0.00229 c 0.117192,-0.1171898 0.121882,-0.3773539 0.0047,-0.494546 z m 1.99e-5,-1.9922473 c -0.1171922,0.1171899 -0.1218824,0.3773539 -0.00469,0.4945461 l 5.2900031,-0.00229 c 0.117192,-0.1171898 0.121882,-0.3773538 0.0047,-0.494546 z M 18.036037,0.1033676 c 0.761741,7.62e-6 1.931316,-0.77812903 1.931339,-3.1219493 0.0094,-0.9890921 -0.236707,-1.8328699 -0.670309,-2.4071102 -0.267192,-0.3468881 -0.679701,-0.6562765 -1.214092,-0.6469066 -0.989092,-0.00939 -1.933663,1.1718909 -1.928995,3.1383562 0.0023,1.0711259 0.337489,2.06959667 0.883594,2.61102462 0.276568,0.29532413 0.621108,0.42189387 0.998463,0.42658528 z m 0.04694,-5.824393 c 0.175786,1.7e-6 0.32579,0.053911 0.44298,0.1711033 0.321101,0.2554796 0.578913,1.0055047 0.585931,2.3438262 -0.0047,0.9047146 -0.03048,1.5445773 -0.175807,2.050841 -0.208608,0.82502266 -0.707842,0.90470756 -0.883629,0.9047058 -0.921121,-0.002353 -1.021888,-1.7039676 -1.028911,-2.573525 0.0024,-2.4446046 0.607078,-2.8992997 1.059436,-2.8969513 z m 0,0"
       style="fill:#ff0000;fill-opacity:1;fill-rule:nonzero;stroke:none"
       aria-label="ð‘=0"
       transform="matrix(1.0666267,-0.79998667,0.79998667,1.0666267,192.15225,52.650366)" />
    <path
       id="path15"
       d="M 9.35448,-28.3468 103.7494,113.38724"
       style="fill:none;stroke:#ff0000;stroke-width:0.19925;stroke-linecap:butt;stroke-linejoin:miter;stroke-miterlimit:10;stroke-dasharray:none;stroke-opacity:1"
       transform="matrix(1.3333333,0,0,-1.3333333,45.62,169.24667)" />
    <path
       id="path16"
       d="M -28.3468,10.48817 141.73404,74.26848"
       style="fill:none;stroke:#ff0000;stroke-width:0.19925;stroke-linecap:butt;stroke-linejoin:miter;stroke-miterlimit:10;stroke-dasharray:none;stroke-opacity:1"
       transform="matrix(1.3333333,0,0,-1.3333333,45.62,169.24667)" />
    <path
       id="path17"
       d="m 59.52846,42.5202 c 0,1.56565 -1.2692,2.83486 -2.83484,2.83486 -1.56566,0 -2.83486,-1.26921 -2.83486,-2.83486 0,-1.56566 1.2692,-2.83485 2.83486,-2.83485 1.56564,0 2.83484,1.26919 2.83484,2.83485 z"
       style="fill:#0000ff;fill-opacity:1;fill-rule:nonzero;stroke:#0000ff;stroke-width:0.3985;stroke-linecap:butt;stroke-linejoin:miter;stroke-miterlimit:10;stroke-dasharray:none;stroke-opacity:1"
       transform="matrix(1.3333333,0,0,-1.3333333,45.62,169.24667)" />
    <path
       id="path18"
       d="m 0.43246875,-2.7290391 c 0,2.19140629 1.04296875,3.7617188 2.64843745,4.5820313 L 3.23325,1.5717422 C 1.780125,0.62252344 1.2410625,-0.72513281 1.2410625,-2.7290391 c 0,-1.9804687 0.5390625,-3.3164062 1.9921875,-4.2773437 L 3.0809062,-7.2759141 c -1.6054687,0.8203125 -2.64843745,2.3789063 -2.64843745,4.546875 z m 5.10644535,-0.3515625 0.3632812,0.984375 -0.9375,1.37109379 c -0.1054687,0.15234375 -0.2109375,0.1875 -0.28125,0.1875 -0.082031,0 -0.1875,-0.0234375 -0.2695312,-0.0585938 -0.09375,-0.0351563 -0.1875,-0.0585938 -0.2929688,-0.0585938 -0.2109375,0 -0.375,0.15234375 -0.375,0.375 0,0.2578125 0.3515625,0.38671875 0.5742188,0.38671875 0.3398437,0 0.5859375,-0.15234375 1.0195312,-0.78515625 l 0.703125,-0.99609379 0.375,1.21875004 c 0.1289063,0.3984375 0.2226563,0.5625 0.5625,0.5625 0.3515625,0 0.7851563,-0.19921875 1.1015625,-0.71484375 -0.046875,-0.09375 -0.1289062,-0.1640625 -0.2460937,-0.1875 -0.2578125,0.328125 -0.3867188,0.41015625 -0.4921875,0.41015625 -0.09375,0 -0.1640625,-0.12890625 -0.2460938,-0.375 l -0.5273437,-1.59375004 0.75,-1.125 c 0.1640625,-0.2226562 0.3984375,-0.2695312 0.46875,-0.2695312 0.082031,0 0.2109375,0.035156 0.3046875,0.1054687 0.070312,0.058594 0.2226562,0.09375 0.328125,0.09375 0.140625,0 0.3164062,-0.1992187 0.3164062,-0.421875 0,-0.2460937 -0.2695312,-0.3984375 -0.5039062,-0.3984375 -0.4921875,0 -0.8203125,0.1640625 -1.3125,0.8789063 l -0.4921875,0.7148437 -0.28125,-0.8789062 c -0.1757813,-0.515625 -0.28125,-0.7148438 -0.5273438,-0.7148438 -0.234375,0 -0.9726562,0.4101563 -1.3125,0.6679688 0,0.1054687 0.046875,0.2226562 0.1289063,0.3046875 0.1171875,-0.058594 0.4453125,-0.2226563 0.65625,-0.2226563 0.1289062,0 0.2226562,0.035156 0.28125,0.1289063 0.035156,0.070312 0.1054687,0.234375 0.1640625,0.4101563 z m 4.4179687,2.13281254 c -0.3046875,0 -0.5273437,0.2109375 -0.5273437,0.4921875 0,0.3046875 0.2578125,0.41015625 0.4453125,0.43359375 0.1875004,0.0234375 0.3515624,0.08203125 0.3515624,0.31640625 0,0.2109375 -0.3515624,0.66796875 -0.8671874,0.79687496 0,0.09375 0.011719,0.1640625 0.082031,0.234375 0.5976564,-0.1054687 1.1835944,-0.58593746 1.1835944,-1.28906246 0,-0.59765625 -0.269532,-0.984375 -0.6679692,-0.984375 z m 6.0468752,0.94921875 c 0.199219,-0.31640625 1.40625,-2.17968749 1.6875,-2.83593749 0.152344,-0.3515625 0.269531,-0.7148438 0.269531,-1.0664063 0,-0.28125 -0.140625,-0.46875 -0.515625,-0.46875 -0.292969,0 -0.46875,0.1289063 -0.46875,0.3632813 0,0.058594 0.02344,0.1640625 0.05859,0.1992187 0.152344,0.234375 0.210937,0.4453125 0.210937,0.5976563 0,0.4453125 -0.410156,1.1835937 -0.761718,1.7226562 0,0 -0.503907,0.84375004 -0.761719,1.20703129 l -0.05859,-0.0234375 C 15.60532,-1.4634141 15.535008,-2.4009141 15.23032,-3.6313828 c -0.140625,-0.5273438 -0.269531,-0.7382813 -0.515625,-0.7382813 -0.234375,0 -0.972656,0.4101563 -1.3125,0.6679688 0.01172,0.1054687 0.04687,0.2226562 0.128907,0.3046875 0.117187,-0.058594 0.445312,-0.2226563 0.644531,-0.2226563 0.128906,0 0.234375,0.035156 0.28125,0.1289063 0.04687,0.070312 0.09375,0.234375 0.152344,0.4101562 0.304687,1.0195313 0.609375,3.44531254 0.492187,3.70312504 -0.410156,0.66796876 -0.820312,1.10156246 -0.960937,1.10156246 -0.105469,0 -0.292969,-0.1289062 -0.351563,-0.1757812 -0.07031,-0.058594 -0.269531,-0.140625 -0.351562,-0.140625 -0.210938,0 -0.457032,0.1992187 -0.457032,0.5039062 0,0.328125 0.433594,0.421875 0.609375,0.421875 0.527344,0 1.3125,-0.6445312 1.957032,-1.62890621 z m 5.276367,-2.73046879 c 0,-2.1679687 -1.042969,-3.7265625 -2.648438,-4.546875 l -0.164062,0.2695313 c 1.453125,0.9609375 1.992187,2.296875 1.992187,4.2773437 0,2.00390629 -0.539062,3.35156254 -1.992187,4.3007813 l 0.164062,0.28125 c 1.605469,-0.8203125 2.648438,-2.39062501 2.648438,-4.5820313 z m 0,0"
       style="fill:#0000ff;fill-opacity:1;fill-rule:nonzero;stroke:none"
       aria-label="(ð‘¥,ð‘¦)"
       transform="matrix(1.3333333,0,0,1.3333333,87.564,104.752)" />
  </g>
</svg>
