<?xml version="1.0" encoding="UTF-8" standalone="no"?>
<svg
   xmlns:dc="http://purl.org/dc/elements/1.1/"
   xmlns:cc="http://creativecommons.org/ns#"
   xmlns:rdf="http://www.w3.org/1999/02/22-rdf-syntax-ns#"
   xmlns:svg="http://www.w3.org/2000/svg"
   xmlns="http://www.w3.org/2000/svg"
   xmlns:sodipodi="http://sodipodi.sourceforge.net/DTD/sodipodi-0.dtd"
   xmlns:inkscape="http://www.inkscape.org/namespaces/inkscape"
   id="svg3760"
   version="1.1"
   inkscape:version="1.0.2 (e86c870879, 2021-01-15, custom)"
   width="2369.0667"
   height="532.26666"
   sodipodi:docname="DU_LOGO_blue.svg"
   viewBox="0 0 2221 499">
  <metadata
     id="metadata3766">
    <rdf:RDF>
      <cc:Work
         rdf:about="">
        <dc:format>image/svg+xml</dc:format>
        <dc:type
           rdf:resource="http://purl.org/dc/dcmitype/StillImage" />
        <dc:title></dc:title>
      </cc:Work>
    </rdf:RDF>
  </metadata>
  <defs
     id="defs3764" />
  <sodipodi:namedview
     pagecolor="#ffffff"
     bordercolor="#666666"
     borderopacity="1"
     objecttolerance="10"
     gridtolerance="10"
     guidetolerance="10"
     inkscape:pageopacity="0"
     inkscape:pageshadow="2"
     inkscape:window-width="1803"
     inkscape:window-height="890"
     id="namedview3762"
     showgrid="false"
     inkscape:zoom="0.3052679"
     inkscape:cx="1415.806"
     inkscape:cy="267.54051"
     inkscape:window-x="0"
     inkscape:window-y="0"
     inkscape:window-maximized="0"
     inkscape:current-layer="layer4"
     inkscape:document-rotation="0" />
  <g
     inkscape:groupmode="layer"
     id="layer4"
     inkscape:label="trace"
     style="display:inline">
    <path
       style="display:inline;fill:#bc192f;fill-opacity:1;stroke:none"
       d="M 34.744643,460.24472 0,425.48944 V 249.48936 73.489285 L 34.755282,38.744643 69.510565,4 H 206.02446 342.53835 l 34.73633,34.788638 34.73633,34.788637 -0.0146,175.961365 L 411.98173,425.5 377.24622,460.25 342.51071,495 H 206 69.489285 Z m 56.081973,-30.13126 c 18.856854,-9.41644 36.258074,-13.19616 60.759284,-13.19753 27.11457,-0.002 55.012,6.30477 84.9141,19.19508 5.64622,2.43399 9.13884,3.46496 9.37257,2.76666 0.93671,-2.7985 12.61842,-19.13688 18.70123,-26.15608 21.44296,-24.74388 54.64338,-43.17348 88.6762,-49.22428 5.3625,-0.95341 9.75,-1.89363 9.75,-2.08936 0,-0.19574 -1.40013,-3.8551 -3.11141,-8.13192 -4.03074,-10.07361 -7.3595,-21.5303 -9.52313,-32.77603 -1.51404,-7.86941 -1.8091,-18.92406 -2.34877,-88 -0.61108,-78.21521 -0.63979,-79.07947 -2.88955,-87 C 333.48435,104.51019 302.25521,75.178302 261.02225,66.50468 255.03311,65.244827 241.96137,64.997587 180.68462,64.98517 91.318155,64.967062 75.468225,64.077205 54.64424,57.908931 50.873572,56.792021 47.680721,56.018094 47.549015,56.189093 47.417309,56.360092 49.839707,61.225 52.932121,67 c 3.092414,5.775 8.023379,15 10.9577,20.5 7.553952,14.1589 12.697479,20.36626 21.430634,25.86316 7.581901,4.77226 9.67448,5.05041 42.179545,5.6065 l 31,0.53034 0.25398,121.66967 0.25397,121.66967 -2.75397,0.54613 c -1.51469,0.30037 -4.55398,0.82653 -6.75398,1.16923 -7.24877,1.12918 -20.83194,5.58737 -27.97519,9.18185 -11.08536,5.57816 -17.44636,10.36561 -26.553777,19.98506 -11.87025,12.53762 -21.166296,28.80886 -26.765273,46.84831 l -1.883946,6.06993 8.415709,-6.34729 c 4.62864,-3.491 11.868732,-8.0716 16.089093,-10.1791 z M 266.15321,382.9836 C 241.67697,371.8768 201.32416,362 180.42232,362 h -4.1537 l 0.43322,-27.75 c 0.23827,-15.2625 0.60321,-28.28514 0.81098,-28.93921 0.45005,-1.4168 12.63911,-5.37105 24.48718,-7.94388 11.82387,-2.56757 42.68331,-2.60633 55.24829,-0.0694 12.24365,2.47206 23.76985,5.94073 34.00171,10.2324 l 8.75,3.67011 0.0205,4.14999 c 0.0196,3.96069 2.1223,26.96157 3.53645,38.68385 l 0.66759,5.53387 -5.86228,3.85563 c -9.1112,5.99245 -19.51847,14.01948 -23.30845,17.97759 -1.89539,1.97947 -3.69539,3.58916 -4,3.57708 -0.30461,-0.0121 -2.50988,-0.90958 -4.90062,-1.99444 z M 295,296.01861 c -5.92904,-3.01821 -21.00021,-7.80067 -31.5,-9.99575 -14.31415,-2.9925 -36.62104,-3.69589 -52.1109,-1.64318 -10.48798,1.38986 -27.13105,5.04127 -32.6391,7.16087 -1.65025,0.63504 -1.75,-1.81831 -1.75,-43.04055 0,-36.64027 0.22209,-43.62876 1.37244,-43.18732 12.47045,4.78536 29.88244,7.82935 48.15335,8.41825 25.04416,0.80721 40.82505,-1.89031 63.21322,-10.80542 4.53145,-1.80446 8.47327,-3.04656 8.7596,-2.76023 0.28633,0.28633 0.40378,22.37134 0.261,49.07781 L 298.5,297.8003 Z M 213.5,201.9173 c -10.62076,-1.07893 -23.95026,-4.26246 -31.13148,-7.43524 l -5.13148,-2.26717 -0.74415,-35.72078 c -0.62129,-29.82315 -0.51703,-35.86465 0.63148,-36.59213 1.93475,-1.22551 30.02134,-1.11436 41.66504,0.16488 28.97635,3.18351 50.41967,11.47442 64.02175,24.75355 9.55273,9.32593 14.71622,20.31496 15.85239,33.73736 l 0.59742,7.05777 -7.13411,3.18992 C 269.11913,199.09304 237.53902,204.35935 213.5,201.9173 Z m -97.82159,147.4622 c 11.76545,-11.89159 21.56866,-25.42553 25.55738,-35.28356 L 143.5,308.5 l 0.2716,-86.32424 0.2716,-86.32425 -2.2716,0.70969 c -10.64821,3.32666 -21.93167,10.64804 -30.45856,19.76332 -11.24225,12.01799 -15.265767,24.0625 -15.295676,45.78798 L 96,214.72501 89.083201,219.86839 C 74.439116,230.75783 64.131832,245.36513 63.204905,256.54266 62.955994,259.5442 62.996091,262 63.294008,262 c 0.297918,0 2.754357,-1.11137 5.458754,-2.46971 6.741502,-3.38607 16.006185,-5.66614 19.988052,-4.91914 1.811859,0.33991 4.18639,1.75214 5.276737,3.13829 1.910677,2.42903 1.98182,4.15362 1.965085,47.63542 -0.0197,51.19132 -0.234331,53.30013 -6.823859,67.04701 -1.159079,2.41803 16.548903,-12.97475 26.519633,-23.05237 z"
       id="path3774"
       inkscape:connector-curvature="0"
       sodipodi:nodetypes="cccccccccccccccccscssssssssssssssssscccssssscsssscssssscsscsssssssssscsssscssscssssscsssscccssscsssssssss" />
    <path
       style="display:inline;fill:#174383;fill-opacity:1;stroke:none"
       d="m 634.61229,498.03803 c -40.72607,-4.67949 -62.70151,-23.73037 -69.86066,-60.5634 -1.88181,-9.68169 -2.03744,-18.50295 -1.41095,-79.97538 0.18498,-18.15 -0.0116,-43.05896 -0.43686,-55.35324 l -0.77318,-22.35323 3.35828,0.73862 c 4.36084,0.95913 20.74301,0.9566 23.76855,-0.004 l 2.34492,-0.74425 -0.65152,7.35788 c -2.89559,32.70057 -3.64138,122.47493 -1.15355,138.85789 3.98863,26.26607 13.58351,42.01641 30.69188,50.3818 12.19943,5.96509 18.11924,7.10005 36.858,7.06645 15.34752,-0.0275 17.04675,-0.22016 24.32783,-2.75798 23.30676,-8.12357 35.48373,-24.5942 41.44197,-56.05458 1.52796,-8.06748 1.7302,-16.6748 1.7302,-73.63536 0,-35.475 -0.33196,-65.99107 -0.7377,-67.81348 -0.65624,-2.94764 -0.52966,-3.24746 1.1465,-2.71547 2.93486,0.93149 15.32308,1.01269 17.96819,0.11777 l 2.377,-0.80421 -0.66828,9.3577 c -1.73944,24.35674 -2.54033,41.46672 -3.53408,75.50068 -1.77223,60.69531 -2.55072,68.24576 -8.73473,84.71649 -7.29886,19.44008 -25.66974,37.00463 -45.8169,43.80594 -13.52616,4.56617 -36.36438,6.69691 -52.23491,4.87336 z m 321.96545,-21.78878 c -30.72133,-34.97311 -68.23671,-76.086 -98.77777,-108.25 -3.91686,-4.125 -14.00669,-14.8269 -22.42183,-23.782 -8.41515,-8.9551 -15.54884,-16.03344 -15.85264,-15.72963 -0.30381,0.3038 -0.6631,1.55571 -0.79843,2.782 -0.69352,6.28437 -0.21223,110.55382 0.60804,131.72963 0.52197,13.475 0.96323,25.96564 0.98057,27.75698 l 0.0315,3.25698 -6.75,-0.59837 c -3.7125,-0.3291 -8.67881,-0.15141 -11.03623,0.39487 -3.78572,0.87724 -4.22789,0.80034 -3.78661,-0.65862 0.65243,-2.15702 3.18537,-40.13753 4.74515,-71.15184 0.67863,-13.49378 1.25306,-51.79094 1.27869,-85.25 l 0.0465,-60.75 h 2.12808 c 1.41865,0 5.08568,3.25034 10.99992,9.75 4.87951,5.3625 9.12541,9.975 9.43532,10.25 0.30992,0.275 6.35461,6.8 13.43265,14.5 7.07804,7.7 18.52506,20.07192 25.43782,27.49315 6.91277,7.42123 15.03549,16.19623 18.05049,19.5 3.01501,3.30377 8.64261,9.38185 12.50579,13.50685 3.86318,4.125 12.64635,13.55746 19.51817,20.96103 6.87182,7.40355 18.82026,20.00356 26.55209,28 7.73183,7.99643 16.20377,16.78897 18.82653,19.53897 l 4.76866,5 -0.57907,-70.5 c -0.3185,-38.77501 -0.86679,-75.8121 -1.21843,-82.30467 l -0.63935,-11.80466 2.89189,0.73672 c 3.71146,0.94549 11.07324,0.94527 14.78564,-4.7e-4 l 2.89375,-0.73718 -0.64296,6.30512 c -0.35363,3.46782 -1.42751,19.13014 -2.3864,34.80513 -1.42677,23.32321 -1.70933,42.07775 -1.55558,103.25 0.18085,71.95294 0.11911,74.75 -1.64996,74.75 -1.14431,0 -9.3791,-8.58497 -21.82205,-22.75 z m 726.26946,21.71745 c -13.1294,-2.02228 -26.0086,-7.34975 -36.2782,-15.00636 l -2.0641,-1.53891 2.4212,-9.32165 c 1.3316,-5.1269 2.4527,-10.73439 2.4914,-12.46109 0.1759,-7.85918 3.1276,-8.1077 7.5946,-0.63944 12.7611,21.33523 37.8697,31.47665 60.6915,24.51339 18.6433,-5.68837 30.3999,-23.60337 29.49,-44.93781 -0.2873,-6.73809 -0.9068,-9.26085 -3.6331,-14.79666 -5.67,-11.51265 -14.118,-17.30512 -42.7133,-29.28677 -19.1811,-8.03703 -27.4936,-12.74009 -35.3129,-19.97945 -16.8787,-15.62669 -20.8644,-42.81403 -9.7176,-66.286 6.3553,-13.38248 19.6375,-23.8221 37.0179,-29.09539 6.9223,-2.10027 10.1218,-2.44315 23.5126,-2.51972 17.7191,-0.10132 23.9652,1.12367 35.6927,7.00013 11.1338,5.57894 10.9854,5.19606 6.8289,17.61751 -1.9369,5.78824 -3.5216,11.43143 -3.5216,12.54043 0,2.16183 -2.0247,3.46435 -3.7117,2.38782 -0.5667,-0.36161 -2.391,-3.35748 -4.054,-6.65748 -8.3095,-16.48885 -22.2514,-23.99493 -39.9868,-21.52817 -26.9925,3.75432 -41.652,31.23916 -29.7057,55.69496 5.1827,10.60972 15.5712,17.95997 38.0634,26.93113 28.6319,11.42002 39.9919,18.45144 47.5024,29.40208 6.1005,8.89481 7.4033,14.32128 7.3225,30.5 -0.066,13.22459 -0.2471,14.47022 -3.2677,22.48988 -4.0131,10.65447 -8.6943,17.78318 -16.9209,25.76769 -7.6085,7.38461 -20.4804,14.19025 -32.6103,17.24179 -9.1997,2.31439 -26.5665,3.2873 -35.1312,1.96809 z m -360.7639,-20.16954 c 0.978,-22.14584 0.9967,-157.82505 0.025,-180.666 l -0.7389,-17.36808 9.7389,0.73334 c 12.5026,0.94144 78.8034,0.95442 91.2389,0.0179 l 9.5,-0.71548 v 9.52453 9.52453 l -2.5,-0.42209 c -6.6839,-1.12849 -46.4349,-3.38888 -61.5,-3.49713 l -17,-0.12214 -0.6325,9.84637 c -0.3479,5.41551 -0.6854,23.45888 -0.75,40.09638 l -0.1175,30.24996 16.75,-0.005 c 15.7245,-0.004 44.1695,-1.30256 54.25,-2.4759 l 4.5,-0.52379 v 9.602 9.60199 l -4.4219,-0.60425 c -6.4713,-0.88431 -68.0444,-2.82231 -69.6836,-2.19327 -1.1639,0.44662 -1.392,7.85711 -1.3792,44.81649 0.01,24.35476 0.4155,44.91343 0.9045,45.68593 1.5325,2.42053 68.6033,0.41133 80.8302,-2.42138 2.2125,-0.51259 2.25,-0.36232 2.25,9.01683 v 9.5381 l -2.75,-0.73635 c -3.6753,-0.98413 -100.7171,-0.9652 -105.5139,0.0206 l -3.7638,0.7735 0.7638,-17.29792 z m 150.7167,9.81202 c 3.1596,-37.62051 3.142,-168.4661 -0.027,-201.4868 l -0.6121,-6.37686 5.8432,0.73462 c 3.2138,0.40404 16.1932,0.59223 28.8432,0.4182 44.2049,-0.60815 54.2338,-0.28771 63,2.01298 16.5744,4.34996 28.4217,12.88795 33.8731,24.41123 6.7089,14.18153 5.3075,36.27005 -3.1199,49.17601 -9.5543,14.6316 -29.4113,27.06051 -49.0412,30.69588 -4.1277,0.76445 -6.13,1.57601 -5.8283,2.36232 0.7885,2.05478 63.7297,81.46682 76.0431,95.94249 8.4642,9.95061 8.6697,9.12713 -2.019,8.09223 -5.7982,-0.56139 -12.7386,-0.54869 -18.0322,0.033 -8.09,0.88896 -8.6924,0.82362 -10.0488,-1.08978 -32.0083,-45.15363 -51.9074,-71.04158 -70.1254,-91.23076 l -9.2987,-10.30469 h -6.1109 -6.111 l 0.6497,35.75 c 0.6026,33.16179 1.0129,44.76035 2.1592,61.04347 l 0.4431,6.29347 -9.7165,-0.63323 c -5.344,-0.34828 -12.3364,-0.20587 -15.5386,0.31646 l -5.8222,0.9497 z m 70.457,-110.49349 c 16.3115,-4.40096 27.2323,-12.56576 33.3042,-24.89957 3.2047,-6.50963 3.286,-6.99705 3.286,-19.69584 0,-12.23689 -0.1686,-13.36443 -2.8001,-18.72339 -3.1983,-6.51327 -10.4053,-13.49878 -17.2427,-16.71273 -9.6347,-4.52888 -15.4324,-5.31201 -36.5444,-4.93631 -10.8607,0.19327 -20.0056,0.61029 -20.3218,0.92671 -0.8608,0.8613 -2.7617,58.5503 -2.403,72.92469 l 0.312,12.5 4,0.67377 c 7.671,1.29214 30.5343,0.0675 38.4098,-2.05733 z m 266.468,111.0026 c 2.726,-29.56001 3.0905,-138.29079 0.6322,-188.5773 -0.5098,-10.42705 -0.8326,-19.05246 -0.7175,-19.16759 0.1151,-0.11513 3.7364,0.18623 8.0474,0.66968 4.5614,0.51154 10.8237,0.50409 14.9803,-0.0178 3.9283,-0.49325 7.1761,-0.81338 7.2173,-0.71141 0.041,0.10198 -0.3554,7.16041 -0.8814,15.68541 -1.2117,19.63804 -1.2556,162.4131 -0.056,182.80049 l 0.9001,15.3005 -10,-0.6007 c -5.5,-0.33038 -12.4148,-0.18703 -15.3663,0.31855 l -5.3663,0.91924 0.6104,-6.61904 z m 303.0174,1.49751 c 0.3432,-2.8141 0.9082,-22.68941 1.2556,-44.16734 l 0.6316,-39.0508 -15.2724,-25.9492 c -19.3902,-32.94573 -47.5747,-80.03732 -54.589,-91.20913 -2.9687,-4.72826 -5.2904,-8.67156 -5.1593,-8.76291 0.1311,-0.0913 4.0633,0.19588 8.7383,0.63826 4.675,0.44238 9.85,0.61979 11.5,0.39423 1.65,-0.22557 5.351,-0.67148 8.2244,-0.99093 l 5.2243,-0.58082 4.6585,9.28105 c 11.4027,22.71763 53.1233,97.78104 54.3471,97.78104 2.1119,0 40.7183,-69.29338 52.5457,-94.31239 5.995,-12.68151 6.0025,-12.69155 9,-12.04172 3.9118,0.84803 16.5849,0.77934 19.3712,-0.105 1.6582,-0.5263 -0.4806,3.42285 -9.0091,16.63448 -28.9809,44.89482 -46.2073,72.89326 -58.3422,94.82463 l -5.8098,10.5 0.6466,39.5 c 0.3557,21.725 0.9363,42.34445 1.2903,45.821 l 0.6437,6.32101 -9.3954,-0.65718 c -5.1674,-0.36145 -12.0343,-0.22845 -15.2597,0.29555 l -5.8644,0.95273 z M 1037.0527,473.52198 c 1.0303,-25.96584 1.0279,-145.92843 0,-172.86274 l -0.7981,-20.84001 3.2443,0.71257 c 4.298,0.944 19.4878,0.95869 23.6653,0.0229 l 3.3136,-0.74227 -0.8136,19.84341 c -1.031,25.14807 -1.0633,149.65808 -0.045,174.86614 l 0.7681,19.02272 h -15.0626 -15.0627 l 0.7945,-20.02272 z m 139.8696,7.00727 c -10.6634,-28.77699 -32.6862,-83.44365 -60.8435,-151.03 -8.249,-19.8 -16.2696,-39.05441 -17.8236,-42.78758 l -2.8256,-6.78758 3.6176,0.67867 c 4.9023,0.91967 18.7752,0.96865 24.3,0.0858 l 4.5,-0.71909 4.844,14.2649 c 10.3856,30.58444 31.8954,86.52121 54.5138,141.7649 10.7271,26.19995 11.1968,27.27874 11.6707,26.80479 1.0194,-1.01935 10.6658,-23.69651 21.1778,-49.78557 13.8925,-34.4788 28.3573,-72.76786 40.4165,-106.98476 4.9362,-14.00604 9.0655,-25.54816 9.1761,-25.64915 0.1106,-0.10099 2.6695,0.21063 5.6865,0.69249 3.1355,0.50079 7.8479,0.50146 11,0.002 3.033,-0.48099 5.5835,-0.80812 5.6676,-0.72695 0.084,0.0812 -2.0834,5.09759 -4.817,11.14759 -5.0468,11.16999 -6.9206,15.44652 -22.3461,51 -17.1536,39.53635 -42.1648,100.51561 -56.4091,137.53 l -5.2068,13.53 h -10.7353 -10.7353 l -4.8283,-13.03 z m 758.8262,-1.98091 c 1.1001,-18.3682 1.4023,-181.0787 0.3384,-182.14271 -0.7222,-0.72224 -46.5161,1.01301 -59.2397,2.24474 l -6,0.58083 -0.034,-9.60421 -0.034,-9.60421 21.0336,0.49695 c 11.5684,0.27333 29.1335,0.69512 39.0335,0.93732 9.9,0.24219 36.2176,0.0433 58.4835,-0.44191 22.2659,-0.48524 40.5716,-0.79411 40.6794,-0.68636 0.1077,0.10774 -0.2588,2.32768 -0.8145,4.93318 -0.6711,3.1464 -0.6788,6.29195 -0.023,9.36668 l 0.9873,4.6294 -6.6563,-0.58279 c -11.3914,-0.99735 -59.111,-3.05472 -59.5963,-2.56942 -0.2533,0.25331 -0.7625,25.42046 -1.1314,55.927 -0.6155,50.88811 0.4771,118.17835 2.1998,135.47617 l 0.5985,6.00975 -15.3635,0.0393 -15.3635,0.0393 0.9013,-15.04909 z m -730.6322,-211.605 -19.7309,-17.94409 H 876.36631 567.3472 v -2.99838 -2.99838 l 305.22238,-0.25162 305.22242,-0.25162 -11.335,-9.59919 -11.3349,-9.59919 -14.1466,-0.611 c -41.1663,-1.77799 -70.4888,-15.21428 -91.1361,-41.7608 -24.0743,-30.95273 -28.2882,-85.320215 -9.5649,-123.406345 15.3883,-31.30216 44.587,-50.83111 83.8048,-56.05117 29.2065,-3.88752 59.6887,0.60309 82.5379,12.15942 17.938,9.07239 34.1081,25.24526 43.1239,43.13118 12.0252,23.85615 15.078,59.522085 7.5982,88.768015 -8.6616,33.86648 -33.8312,59.9804 -67.9921,70.54306 -4.125,1.27546 -7.8527,2.6058 -8.2838,2.9563 -0.6657,0.54131 12.9688,11.97137 25.3782,21.27493 l 3.5944,2.69479 h 506.1556 506.1556 v 2.99901 2.99901 l -502.097,0.25099 -502.0969,0.25099 15.6176,11.47606 15.6176,11.47606 -4.8871,1.10068 c -5.6185,1.26539 -12.5628,5.08857 -16.0785,8.85204 -1.3334,1.42734 -2.6834,2.57 -3,2.53925 -0.3166,-0.0308 -9.4546,-8.13076 -20.3066,-18 z m -36.0137,-58.50903 c 29.7033,-7.29115 50.4587,-29.61557 58.196,-62.59515 5.7055,-24.3193 4.9148,-53.976565 -2.0479,-76.806285 -6.5263,-21.39918 -21.2651,-39.56822 -39.2785,-48.42012 -12.4056,-6.09619 -20.1641,-7.79283 -38.125,-8.33721 -13.9588,-0.42307 -17.1482,-0.21237 -25,1.65162 -31.4233,7.45977 -52.601,30.14952 -60.6361,64.96538 -2.5973,11.25403 -3.6175,39.081545 -1.9256,52.523025 2.226,17.68502 8.3615,35.37927 16.3263,47.08368 5.7361,8.42933 17.9519,19.04234 27.4694,23.86519 17.1482,8.68966 44.0992,11.20558 65.0214,6.06987 z m -293.7554,13.49667 c -37.16295,-4.12812 -59.49421,-21.77313 -67.50067,-53.33553 -3.88377,-15.31028 -4.62337,-29.24287 -3.29632,-62.0962 0.88231,-21.843185 0.89422,-38.002975 0.0482,-65.480725 -0.61773,-20.06439 -1.03947,-36.53903 -0.9372,-36.61031 0.10227,-0.0713 3.95278,0.28046 8.55669,0.78164 5.03496,0.5481 10.7688,0.54828 14.38838,4.4e-4 l 6.01764,-0.91079 -0.66133,11.10987 c -2.97218,49.93091 -3.51068,113.678055 -1.11469,131.955705 2.81642,21.48492 8.51002,34.69312 19.30998,44.79595 11.22613,10.5015 23.15913,14.75508 43.68928,15.57329 40.19758,1.60204 61.95665,-15.87903 70.20614,-56.40308 1.62303,-7.9728 1.79386,-15.40569 1.79386,-78.050135 0,-61.05793 0.17722,-69.19039 1.5,-68.83406 4.50547,1.21371 11.20102,1.53711 14.8499,0.71726 l 4.15014,-0.93247 -0.009,4.64371 c -0.005,2.55403 -0.43322,10.7187 -0.95226,18.1437 -1.1053,15.81166 -2.72458,53.65818 -4.04323,94.500005 -0.59728,18.49896 -1.4661,31.35584 -2.39938,35.50596 -7.7774,34.58461 -29.57393,56.53809 -62.98603,63.43955 -9.71533,2.00675 -29.4291,2.72823 -40.6101,1.48622 z m 503,0.43465 c -9.0419,-0.85147 -21.4307,-3.54457 -28.98,-6.29973 -22.4648,-8.19863 -35.9887,-23.99805 -42.4278,-49.56665 -3.2263,-12.81128 -3.9234,-28.36441 -2.6443,-59 0.9239,-22.129255 0.9455,-37.736835 0.091,-65.876335 -0.6158,-20.28199 -0.989,-36.98452 -0.8293,-37.11676 0.1596,-0.13223 3.7925,0.17853 8.073,0.69059 4.8718,0.5828 10.108,0.574 14,-0.0235 3.4195,-0.52499 6.3696,-0.81415 6.5556,-0.64257 0.1861,0.17157 -0.1798,7.20969 -0.8131,15.64026 -0.6334,8.43058 -1.4002,38.27832 -1.7042,66.32832 -0.4645,42.875015 -0.3052,52.752455 0.9999,62.000005 4.65,32.94786 17.8107,49.79893 44.6791,57.20768 5.0805,1.4009 10.1034,1.78143 23,1.74245 15.1659,-0.0458 17.1531,-0.26728 24.5775,-2.73902 18.3526,-6.1099 30.6213,-19.1921 37.2418,-39.71111 5.5719,-17.26918 5.6807,-19.04154 5.6807,-92.545835 V 4.407605 l 6.1476,0.82386 c 3.5872,0.48072 7.9137,0.42706 10.3878,-0.12883 l 4.2401,-0.95269 -0.6621,9.67465 c -1.8469,26.98591 -2.617,43.98614 -3.5867,79.17466 -1.5868,57.582315 -2.7864,67.585535 -10.0296,83.637205 -10.2847,22.79181 -30.5027,38.48575 -56.4971,43.8551 -7.9422,1.64051 -28.8726,2.68652 -37.5,1.87408 z m 344.3881,-0.41747 c -12.1389,-1.58385 -21.7426,-5.23417 -32.1794,-12.23113 -5.1167,-3.4303 -6.1741,-4.59119 -5.6634,-6.21778 1.4343,-4.56811 4.3238,-17.33375 4.9366,-21.8098 0.8658,-6.32319 2.8295,-5.965 7.1911,1.3117 6.7268,11.22264 18.0556,20.56517 29.0997,23.99756 18.2884,5.68384 35.5893,2.39168 47.7194,-9.08043 15.9417,-15.07698 18.1569,-42.72086 4.6557,-58.09791 -5.2291,-5.95556 -14.8175,-11.41781 -36.2503,-20.65076 -11.2186,-4.83284 -22.998,-10.45099 -26.1765,-12.48478 -16.9976,-10.876345 -25.0331,-24.131695 -26.3313,-43.436625 -2.0014,-29.75952 16.348,-53.89179 46.3234,-60.92255 10.522,-2.46792 33.0341,-2.48383 42.2869,-0.0299 7.725,2.04876 19.8819,7.81051 22.4372,10.63409 1.7617,1.94661 1.752,2.17694 -0.3065,7.28976 -1.169,2.90379 -2.9745,8.65463 -4.0121,12.77963 -2.5272,10.04719 -3.9888,10.19363 -8.684,0.87008 -4.7596,-9.45123 -12.3499,-16.94189 -20.1378,-19.87335 -4.8886,-1.84012 -7.3636,-2.12419 -15.7968,-1.8131 -8.7007,0.32097 -10.8445,0.77372 -16.5,3.48463 -15.6889,7.52035 -23.7951,23.33486 -20.9833,40.93625 1.3098,8.1988 3.8286,13.24667 9.7901,19.61999 6.1622,6.58796 14.6477,11.46213 32.6932,18.77938 32.4732,13.167565 42.8306,20.356545 49.8472,34.598535 3.9235,7.96391 4.9701,14.44709 4.4038,27.2811 -0.6119,13.87008 -3.8475,23.98002 -11.2274,35.08092 -15.0351,22.61604 -44.8331,34.19926 -77.1355,29.98448 z m 298.6119,-10.14828 c -15.7243,-18.42396 -50.1265,-56.71619 -78.5,-87.3764 -20.7801,-22.45483 -68.0647,-72.424235 -68.5329,-72.424235 -2.1111,0 -1.6121,130.580915 0.6062,158.627485 l 0.6428,8.12748 -5.1232,-1.01298 c -3.3894,-0.67017 -7.1729,-0.68289 -11.1799,-0.0376 l -6.0566,0.9754 0.5786,-4.5899 c 0.3182,-2.52445 1.0049,-10.4399 1.526,-17.5899 2.8501,-39.11113 3.5105,-63.04755 3.5243,-127.749235 l 0.015,-68.74924 2.5,0.0126 c 1.9849,0.01 7.4453,5.40355 26.5,26.17563 48.8317,53.23278 102.8214,110.944835 122.8275,131.296045 l 10.8274,11.01423 -0.662,-66.5 c -0.364,-36.575005 -0.992,-73.475005 -1.3955,-82.000005 -0.4034,-8.525 -0.7029,-15.5727 -0.6654,-15.66156 0.037,-0.0889 2.4712,0.27641 5.4083,0.81171 3.4915,0.63632 6.9492,0.63016 9.9873,-0.0178 2.5559,-0.54511 4.7342,-0.90391 4.8407,-0.79735 0.1066,0.10657 -0.1988,4.91229 -0.6787,10.67938 -2.7726,33.31937 -3.4896,60.49155 -3.4896,132.235715 0,75.09484 -0.017,75.74979 -2,75.71584 -1.2891,-0.0221 -5.377,-3.99105 -11.5,-11.1653 z M 562.0057,194.34568 c 1.08882,-32.14896 1.08496,-134.850295 -0.006,-166.207745 l -0.848,-24.36131 7.34775,0.76557 c 4.04126,0.42107 21.52275,0.61168 38.84775,0.4236 54.57209,-0.59246 65.78595,-0.38635 75.57709,1.38905 39.79211,7.21541 63.29618,29.67195 71.39444,68.21254 2.72835,12.98454 3.68973,35.635915 2.09341,49.323605 -5.65683,48.50486 -37.04866,82.0198 -86.35264,92.1929 -11.2105,2.31311 -14.17948,2.39195 -70.7123,1.87771 -18.425,-0.1676 -34.55368,0.0407 -35.8415,0.46289 l -2.3415,0.76762 z m 91.96051,11.12775 c 12.45179,-2.1393 18.66574,-4.02801 27.88099,-8.4743 23.39719,-11.28898 37.44306,-31.89962 43.11284,-63.26297 2.03967,-11.28278 2.33095,-39.806005 0.51812,-50.736915 -6.70078,-40.40395 -27.81495,-60.22387 -69.32821,-65.07854 -11.40716,-1.33398 -38.58062,-0.75808 -55.45355,1.17526 l -10.15081,1.1631 -0.82755,15.62009 c -1.02701,19.38464 -0.77385,142.628865 0.32377,157.620085 l 0.80539,11 9.5,1.1207 c 14.62343,1.72511 43.17943,1.64708 53.61901,-0.14651 z m 890.09969,-4.14831 c 1,-22.81663 1.019,-156.219075 0.026,-179.648605 l -0.7557,-17.82273 9.7557,0.72584 c 12.8164,0.95357 79.1028,0.96306 91.2557,0.0131 l 9.5,-0.74261 v 9.40376 9.40377 l -5,-0.38032 c -2.75,-0.20917 -9.725,-0.83546 -15.5,-1.39176 -5.775,-0.5563 -21.7898,-1.27354 -35.5885,-1.59386 l -25.0886,-0.5824 -0.6614,12.30198 c -0.3642,6.7661 -0.6619,24.83134 -0.6619,40.14499 v 27.843 l 17.25,-0.005 c 16.4041,-0.004 45.651,-1.3562 54.25,-2.50741 l 4,-0.53551 v 9.624675 9.62466 l -5.5,-0.61273 c -4.7943,-0.53411 -55.9518,-2.51887 -66.25,-2.5703 l -3.75,-0.0188 v 46.15434 46.15435 l 30.75,-0.61781 c 27.3087,-0.54866 44.0742,-1.60315 51,-3.20771 2.2132,-0.51274 2.25,-0.36428 2.25,9.06973 v 9.59101 l -5.75,-0.78435 c -7.4569,-1.01719 -92.9752,-1.00657 -100.5313,0.0125 l -5.7813,0.77969 0.7813,-17.82586 z m 550.7396,9.9682 c 1.1383,-14.70307 2.5384,-69.80489 2.5356,-99.79407 0,-30.673555 -1.4444,-87.153445 -2.5613,-100.350435 l -0.6221,-7.35042 9.8448,0.77281 c 12.4255,0.97541 81.0033,0.9881 92.3502,0.0171 l 8.5055,-0.72785 -0.055,9.27129 -0.055,9.27129 -5.4507,-0.27034 c -2.9979,-0.14869 -9.7257,-0.69537 -14.9507,-1.21485 -5.225,-0.51947 -21.0141,-1.23206 -35.087,-1.58352 l -25.5869,-0.63901 -0.6631,16.81168 c -0.3642,9.24643 -0.6626,27.31481 -0.6626,40.15197 v 23.34029 l 17.25,-0.005 c 16.4041,-0.004 45.651,-1.3562 54.25,-2.50741 l 4,-0.53551 v 9.619455 9.61945 l -4.5,-0.59319 c -6.981,-0.92024 -68.9229,-2.76385 -70.0227,-2.08412 -1.1082,0.68489 -1.3865,75.27737 -0.319,85.49072 l 0.6583,6.29813 30.5917,-0.605 c 26.4951,-0.52397 39.8899,-1.35786 50.0917,-3.11845 l 2.5,-0.43144 -0.1917,9.16465 -0.1917,9.16466 -15.3083,-0.48865 c -20.3534,-0.64968 -86.0379,-0.30966 -92.1309,0.47692 l -4.8225,0.62258 0.6034,-7.79407 z"
       id="path3774-2"
       inkscape:connector-curvature="0"
       sodipodi:nodetypes="sssscsccsssssssssscsssssssssssscssssscsssssssssscsscsscsssssssscssssssssssssssssssssssssscscsscccsscssccscccsscssscsscccsscsssssssssscscccsscsscssssssssscsssssssssscssccssscsssssscssssssscsscsscscccsscsccccccssscsscssssssscssssccccscsscccsssssscsssscccccscccccccccsssssssssscccccccccsssssssssssssssssssssscsssssssscssssssssssssssssssssssscsscsssssssssssssssssssssssssssssssssssssscsscssscssscsscsssssssssccsssssssscssssssscsscsscccsscccsssccsccscccsscccssscsscccccscsscccsssccsccscccssscsscccssccc" />
  </g>
</svg>
